<?xml version="1.0" encoding="UTF-8" standalone="no" ?>
<!DOCTYPE svg PUBLIC "-//W3C//DTD SVG 1.1//EN" "http://www.w3.org/Graphics/SVG/1.1/DTD/svg11.dtd">
<svg xmlns="http://www.w3.org/2000/svg" xmlns:xlink="http://www.w3.org/1999/xlink" version="1.1" width="1280" height="1024" viewBox="0 0 1280 1024" xml:space="preserve">
<desc>Created with Fabric.js 5.3.0</desc>
<defs>
</defs>
<g transform="matrix(1 0 0 1 640 512)" id="background-logo"  >
<rect style="stroke: none; stroke-width: 0; stroke-dasharray: none; stroke-linecap: butt; stroke-dashoffset: 0; stroke-linejoin: miter; stroke-miterlimit: 4; fill: rgb(255,252,242); fill-rule: nonzero; opacity: 1;"  paint-order="stroke"  x="-640" y="-512" rx="0" ry="0" width="1280" height="1024" />
</g>
<g transform="matrix(1.9211538461538462 0 0 1.9211538461538462 640 399.3737901026477)" id="logo-logo"  >
<g style=""  paint-order="stroke"   >
		<g transform="matrix(-1.5046158532093707 0 0 -1.5046158532093705 0 0)"  >
<g style=""  paint-order="stroke"   >
		<g transform="matrix(1 0 0 1 0 0)"  >
<path style="stroke: none; stroke-width: 1; stroke-dasharray: none; stroke-linecap: butt; stroke-dashoffset: 0; stroke-linejoin: miter; stroke-miterlimit: 4; fill: rgb(224,13,69); fill-rule: nonzero; opacity: 1;"  paint-order="stroke"  transform=" translate(-78.61978379461732, -60.93998946650237)" d="M 2.87 99.33 C 5.667728774393181 98.6351784984807 8.358741329382234 97.56550100787254 10.869999999999994 96.14999999999999 C 11.48 95.8 12.090000000000002 95.42999999999999 12.680000000000001 95.03999999999999 C 13.030000000000001 94.8 13.46 94.33 13.88 94.24999999999999 C 14.480888813938856 94.27409039490931 15.071571255463665 94.41327418860193 15.620000000000001 94.65999999999998 C 16.23 94.80999999999999 16.85 94.93999999999998 17.470000000000002 95.06999999999998 C 15.571494257498273 97.14655412304464 13.1559626217416 98.68214209148995 10.470000000000002 99.51999999999998 C 9.270000000000003 99.89999999999998 8.020000000000003 100.13999999999999 6.8400000000000025 100.58999999999997 C 6.230000000000002 100.81999999999998 5.680000000000002 100.45999999999998 5.080000000000003 100.22999999999998 C 4.480000000000003 99.99999999999997 3.61 99.64 2.87 99.33 Z M 37.36 72.8 C 37.67 72.72 38.87 72.57 39.04 72.21 C 39.21 71.85 38.28 71.58999999999999 38.04 71.5 C 34.839999999999996 70.31 31.48 69.5 28.22 68.5 C 26.3 75.36 26.84 82.72 28 89.64 C 27.9 83.35 30.47 74.63 37.36 72.8 Z M 42.36 74.2 C 44.83 77.57000000000001 44.63 81.54 43.5 85.39 C 42.04313247030686 89.80295425271785 39.845012112509885 93.93542052537616 37 97.61 C 34.74050760805822 100.70408466454846 32.16310950639174 103.5529642307598 29.310000000000002 106.11 C 25.89711338126504 109.07397834096082 22.214398054760405 111.71214168394779 18.310000000000006 113.99000000000001 C 16.018054657473513 115.49252910030067 13.57052775537029 116.74311476397808 11.01 117.72 C 10.481978806390345 117.91275299335415 9.940524893242733 118.06649916622322 9.389999999999997 118.17999999999999 C 9.130100443234882 118.20133338409435 8.872497684802221 118.24482475889467 8.619999999999994 118.30999999999999 C 8.299493670209827 118.51131690190928 8.001169036743292 118.74595425407396 7.729999999999993 119.00999999999999 Q 5.839999999999998 120.46 3.869999999999998 121.77999999999999 C 14.813328432699302 120.0147669654428 24.942855711741156 114.90808804062928 32.869999999999976 107.16 C 36.55797410234171 103.54498788772561 39.71291488156102 99.42369918573581 42.24 94.91999999999997 C 44.124582342314 91.72298990980916 45.602678385532485 88.30321315527183 46.639999999999986 84.74 C 47.32724065938898 82.63764140314466 47.37249925324661 80.37819314055987 46.769999999999996 78.24999999999999 C 46.08026063226174 76.2480363034907 44.43095791330067 74.72647001378856 42.38 74.2 Z M 25 96.64 C 23.28 96.31 21.55 95.95 19.83 95.64 C 19.40100603092072 95.48645831634937 18.953972527724154 95.38898484572756 18.5 95.35 C 18.16 95.35 17.83 95.89 17.56 96.16999999999999 C 16.978415282683997 96.76324897335779 16.349688901742788 97.30836812279085 15.679999999999998 97.79999999999998 C 14.433027881364211 98.71458002662065 13.067096276243191 99.45474000969115 11.620000000000001 99.99999999999999 C 10.32 100.48999999999998 8.96 100.76999999999998 7.620000000000001 101.18999999999998 C 11.565492492800068 102.51922888919819 15.647712071136908 103.40141767235562 19.789999999999964 103.81999999999998 C 19.07729512268436 106.01839007059448 18.046347117647397 108.10050074743384 16.730000000000004 110 C 14.755062376098435 112.66303317014038 12.465078630543383 115.07725357051292 9.909999999999993 117.19 C 13.280000000000001 116.25 16.34 114.24 19.28 112.42 C 21.822077984776406 110.87870537490411 24.266715091712193 109.18215394003612 26.600000000000023 107.33999999999999 C 31.100704474982344 103.67977266534793 35.004115370478075 99.34115001054455 38.17 94.48 C 40.02585719994543 91.77643105303738 41.5123306606573 88.83711475289672 42.59 85.74 C 43.48875100038166 83.34822889302599 43.75735211879406 80.76552583136831 43.370000000000005 78.24000000000001 C 43.05588232718325 76.84077580049609 42.43417465910607 75.52904094037721 41.550000000000004 74.4 C 41.18000000000001 73.91000000000001 40.980000000000004 73.89 40.36000000000001 73.84 C 39.98708439711524 73.8150237952604 39.61291560288477 73.8150237952604 39.24 73.84 C 38.23927714455541 73.88047515955037 37.25960297268472 74.13990107265899 36.37000000000001 74.60000000000001 C 34.0050017501847 76.00305478195774 32.177882230541805 78.15757722130543 31.180000000000007 80.72000000000001 C 28.80559186490455 86.02489619838573 28.429120851829545 92.00936466094596 30.120000000000015 97.57000000000004 C 28.41 97.27 26.7 97 25 96.64 Z M 124.55 75.33 C 126.40650086088807 77.17578223517606 127.74760110121974 79.47530372695299 128.44 82 C 129.26851382021488 84.46804141807415 129.68080487033805 87.05668850327379 129.66 89.65999999999998 C 130.79999999999998 82.74 131.32999999999998 75.38 129.41 68.55 C 127.08 69.25 124.72999999999999 69.92999999999999 122.41 70.61999999999999 C 121.56 70.88 120.71 71.13 119.86999999999999 71.41999999999999 C 119.57999999999998 71.51999999999998 118.86999999999999 71.67999999999999 118.66 71.96999999999998 C 118.36 72.44999999999999 119.5 72.60999999999999 119.82 72.69999999999999 C 121.59260241894498 73.1726284441508 123.2208936732892 74.07608962535866 124.55999999999999 75.32999999999998 Z M 110.55 79.75 C 110.05 83.14 111.55 86.75 112.89 89.84 C 114.28322488436214 92.98395826401332 115.95664480908566 95.99611412851567 117.89 98.84 C 126.18341878636141 111.15264376790634 139.22559108161346 119.4597829548544 153.89 121.77000000000001 C 152.73999999999998 121.00000000000001 151.6 120.19000000000001 150.48999999999998 119.35000000000001 C 150.0406430220634 118.91096937976187 149.52415994193524 118.54639308790671 148.95999999999998 118.27000000000001 C 148.51 118.14000000000001 148.02999999999997 118.10000000000001 147.57999999999998 117.97000000000001 C 145.37658592052728 117.27468193236056 143.26989104361337 116.30365351222004 141.30999999999997 115.08000000000001 C 137.2681039290436 112.83721015012985 133.43308051224443 110.24037055899879 129.84999999999997 107.32 C 126.82509350107803 104.78219548434078 124.08258273299326 101.92569282614004 121.66999999999996 98.80000000000003 C 118.84613124586417 95.3210790179275 116.54829793935019 91.44643341310189 114.84999999999997 87.30000000000003 C 113.21999999999997 82.98000000000002 112.44999999999996 78.14000000000001 115.34999999999997 74.19000000000001 C 112.74561365040879 74.86696237278323 110.82614166219278 77.0765408933797 110.52 79.75 Z M 131.76 96.81 C 130.35999999999999 97.08 128.95 97.32000000000001 127.55 97.55 C 129.02568400645575 92.63860177594887 128.89959639969626 87.38495149430346 127.19 82.54999999999998 C 126.41628272812385 79.95031469997974 124.95482832200788 77.60784168024779 122.96 75.77 C 121.7437154723608 74.66457859096123 120.19759881367693 73.98990950353554 118.55999999999999 73.85 C 118.14371021709411 73.82493728663296 117.72628978290587 73.82493728663296 117.30999999999999 73.85 C 116.66999999999999 73.85 116.49999999999999 73.85 116.10999999999999 74.41 C 115.59515280785565 75.06141450772732 115.1619346892164 75.77336986549106 114.81999999999998 76.53 C 113.99910535917753 78.66868382880602 113.85939462904354 81.00883855855047 114.41999999999997 83.23 C 115.1231820021619 86.36479326148189 116.33956891237692 89.3618354541506 118.01999999999998 92.10000000000001 C 120.97669726481793 97.17801730644496 124.71215991997582 101.76045478223936 129.09 105.68000000000002 C 131.5818506748413 107.9030533422744 134.25815060246094 109.91027828798914 137.08999999999995 111.67999999999998 C 140.42999999999998 113.78 143.90999999999997 116.18 147.74999999999997 117.26 C 145.1801279282394 115.12735301578498 142.8798270544911 112.6893698999583 140.9 110 C 139.56700892799026 108.08069084136751 138.5257057217244 105.97449503581356 137.81 103.75 C 141.95827468306396 103.33938412071056 146.04726645588002 102.4638903941273 150.00000000000003 101.13999999999999 C 148.65 100.71 147.25 100.42 145.92 99.91 C 143.6464506919353 99.04133511862062 141.596286547452 97.67455902229841 139.92 95.91 C 139.77812126921646 95.71163856083476 139.61368651301652 95.53042474787972 139.42999999999998 95.36999999999999 C 139.2 95.24 139.01 95.36999999999999 138.73 95.36999999999999 L 137.39 95.64999999999999 C 135.48 96.07 133.61 96.47 131.73 96.81 Z M 78.61 22.47 C 96.495544247715 22.466687154561054 113.32410573516673 30.94102086748491 123.97101762818664 45.31238027271124 C 134.61792952120658 59.68373967793757 137.82292036212488 78.25099169121543 132.61 95.36000000000001 Q 142.42000000000002 93.44 152.09 90.84 C 152.44 90.75 152.99 90.69 153.09 90.42 C 153.20302629190812 90.03686862922028 153.2602807592063 89.63945526797416 153.26 89.24 C 153.38 88.41 153.48 87.57 153.57 86.74 C 153.73999999999998 85.14999999999999 153.85 83.55 153.91 81.94999999999999 C 154.0166632404267 79.25008606913079 153.98328511338008 76.54645777835304 153.81 73.84999999999998 C 153.20420565202244 64.5515163654237 150.87460720223504 55.44675386516295 146.94 47.000000000000014 C 139.18765737328374 30.49661500360943 125.75121115790454 17.337062527939512 109.08999999999992 9.929999999999964 C 85.2236742283434 -0.6303947812744486 57.593141881111734 1.9039201001409864 36.04610276483071 16.629698486924624 C 14.49906364854968 31.355476873708263 2.1007497313152186 56.17786357844088 3.269999999999996 82.25 C 3.34 83.85 3.46 85.44 3.63 87.03 C 3.71 87.82000000000001 3.81 88.6 3.92 89.38 C 3.92 89.64 3.92 90.38 4.1 90.55 C 4.279999999999999 90.72 5.1899999999999995 90.85 5.43 90.92 C 8.62 91.78 11.83 92.58 15.04 93.32000000000001 C 18.25 94.06000000000002 21.4 94.72000000000001 24.6 95.32000000000001 C 19.39549318892861 78.21257154362306 22.604198743883092 59.650928764892846 33.249695146244406 45.28345139815038 C 43.89519154860572 30.915974031407927 60.7184174129654 22.44192862792302 78.6 22.440000000000012 Z M 78.61 0.1 C 56.0347408809198 0.08348438166264738 34.54312453115736 9.77832033192052 19.614438300756717 26.71280953276473 C 4.685752070356074 43.64729873360894 -2.2374144380803216 66.18502672301045 0.6099999999999994 88.57999999999997 C 0.6134981643560811 88.88374592698774 0.6537918720673748 89.18594873482246 0.7299999999999986 89.48 C 0.8699999999999994 89.72 1.1399999999999995 89.74000000000001 1.4499999999999993 89.82000000000001 L 3.249999999999999 90.33000000000001 C -1.3695273791801208 60.06722044557251 12.57996128496367 29.979851274632672 38.661715043459424 13.951190056425375 C 64.74346880195517 -2.077471161781915 97.88747356934199 -0.9316240520261374 122.80000000000001 16.860000000000028 C 129.44292268430956 21.618643921137036 135.28602792544314 27.404364535407947 140.11 34.000000000000014 C 150.2325399007044 47.789258896543984 155.39543331997623 64.59597474398919 154.76000000000002 81.68999999999996 C 154.66014128646103 84.59337646135062 154.38967466402988 87.4883710495949 153.95000000000002 90.36 L 156.04000000000002 89.77 C 156.53000000000003 89.64 156.48000000000002 89.53 156.54000000000002 89.06 C 156.60000000000002 88.59 156.65000000000003 88.16 156.70000000000002 87.72 C 156.88000000000002 86.16 157.01000000000002 84.6 157.10000000000002 83.03 Q 157.31000000000003 79.03 157.10000000000002 75.09 C 156.89726269294843 70.65290578778173 156.3219037552956 66.24070556240929 155.38 61.89999999999994 C 147.77704063148897 27.01829034566618 117.59973304398846 1.6562046087511817 81.93 0.1700000000000017 C 80.82 0.12 79.71 0.1 78.61 0.1 Z M 131.74 78.71 C 131.73803415205185 84.61545377059507 130.75116239467738 90.47922945225503 128.82000000000002 96.06 L 130.57000000000002 95.74000000000001 C 130.86873589642812 95.7225463346559 131.1642395107422 95.66881840478061 131.45000000000002 95.58000000000001 C 131.83 95.4 131.77 95.42000000000002 131.91000000000003 94.98000000000002 C 132.24000000000004 93.88000000000002 132.53000000000003 92.78000000000002 132.79000000000002 91.67000000000002 C 133.30007616516374 89.50794124881244 133.68075199505518 87.31738559610366 133.93 85.11 C 134.35568007289837 81.12132522027893 134.35568007289837 77.09867477972108 133.93 73.11 C 133.24880678461213 66.45718850503813 131.3684677728094 59.98272390764163 128.38 53.99999999999998 C 115.71354207318629 28.74747067897889 86.14056991452429 16.98631155880156 59.5908897894721 26.642598566662365 C 33.04120966441991 36.29888557452317 17.933868514139718 64.31055795437545 24.450000000000017 91.80000000000004 C 24.7 92.86 24.99 93.91 25.3 94.95 C 25.44 95.4 25.38 95.39 25.77 95.57000000000001 C 26.05657533793572 95.65730844609635 26.351525455616702 95.7142874461029 26.65 95.74000000000001 L 28.4 96.06 C 21.670997211637165 76.59225834205733 26.800655760573015 54.9893642486632 41.56320960116936 40.6248437940958 C 56.32576344176571 26.260323339528412 78.06076223463674 21.72289482626573 97.33735949094643 28.981354856067114 C 116.61395674725614 36.2398148858685 129.95819868729174 53.98607187388906 131.58 74.51999999999997 C 131.68 75.92 131.74 77.31 131.74 78.71 Z" stroke-linecap="round" />
</g>
</g>
</g>
</g>
</g>
<g transform="matrix(1.9211538461538462 0 0 1.9211538461538462 639.815569230769 673.7866527485382)" id="text-logo"  >
<g style=""  paint-order="stroke"   >
		<g transform="matrix(1 0 0 1 0 0)" id="text-logo-path-0"  >
<path style="stroke: none; stroke-width: 0; stroke-dasharray: none; stroke-linecap: butt; stroke-dashoffset: 0; stroke-linejoin: miter; stroke-miterlimit: 4; fill: rgb(224,13,69); fill-rule: nonzero; opacity: 1;"  paint-order="stroke"  transform=" translate(-176.38500000000002, 23.07)" d="M 20.8 -41.6 C 14.46 -41.6 10.75 -32.96 10.75 -22.59 C 10.75 -12.03 16.32 -2.18 21.95 -2.18 C 27.46 -2.18 30.21 -10.05 39.49 -10.05 C 39.3 -6.08 34.62 -3.97 37.95 0 C 27.71 -2.94 27.84 0.64 19.71 0.64 C 9.98 0.64 1.28 -6.21 1.28 -20.99 C 1.28 -31.62 7.49 -44.8 22.21 -44.8 C 29.25 -44.8 30.66 -42.37 37.95 -44.29 C 35.26 -41.09 32.77 -38.14 32.9 -35.07 C 27.71 -35.33 27.26 -41.6 20.8 -41.6 Z M 83.33 -3.33 L 67.26 -46.78 L 63.87 -46.78 C 62.72 -44.1 61.25 -42.05 59.65 -41.41 L 60.22 -39.81 L 53.89 -22.46 L 51.84 -22.46 C 52.42 -22.08 52.93 -21.63 53.38 -21.18 L 46.85 -3.33 C 46.02 -1.02 43.07 -0.64 40.77 -0.64 L 40.77 0 L 51.58 0 L 51.58 -0.64 C 49.98 -0.64 48.58 -1.02 49.41 -3.33 L 55.17 -19.2 C 56.26 -17.73 56.96 -16.26 57.22 -14.98 C 58.37 -15.68 61.31 -15.81 62.72 -15.81 C 65.86 -15.81 67.33 -14.46 69.25 -12.03 L 71.62 -9.15 L 73.73 -3.39 C 74.56 -1.09 72.38 -0.7 70.08 -0.77 L 70.08 -0.13 L 87.94 0 L 87.94 -0.64 C 86.34 -0.64 84.16 -1.02 83.33 -3.33 Z M 59.33 -22.46 L 56.32 -22.46 L 61.44 -36.54 L 69.95 -13.7 L 65.86 -18.69 C 63.94 -21.12 62.46 -22.46 59.33 -22.46 Z M 89.86 -0.64 L 89.86 0 L 102.14 0 L 102.14 -0.64 C 99.84 -0.64 97.28 -1.09 97.28 -3.52 L 97.28 -35.65 L 110.72 0 L 113.28 0 L 127.36 -37.38 L 127.36 -3.52 C 127.36 -1.09 124.8 -0.64 122.5 -0.64 L 122.5 0 L 141.18 0 L 141.18 -0.64 C 138.88 -0.64 136.32 -1.09 136.32 -3.52 L 136.32 -40.64 C 136.32 -43.07 138.88 -43.52 141.18 -43.52 L 141.18 -44.16 L 127.36 -44.16 L 115.52 -12.8 L 103.68 -44.16 L 89.86 -44.16 L 89.86 -43.52 C 92.16 -43.52 94.72 -43.07 94.72 -40.64 L 94.72 -3.52 C 94.72 -1.09 92.16 -0.64 89.86 -0.64 Z M 144.38 -0.64 L 144.38 0 L 163.07 0 L 163.07 -0.64 C 160.77 -0.64 158.21 -1.09 158.21 -3.52 L 158.21 -41.6 C 158.21 -43.33 158.21 -44.8 158.85 -46.72 C 156.42 -45.06 152.45 -44.22 149.44 -44.16 L 144.38 -44.16 L 144.38 -43.52 C 146.69 -43.52 149.25 -43.07 149.25 -40.64 L 149.25 -3.52 C 149.25 -1.09 146.69 -0.64 144.38 -0.64 Z M 182.27 -40.77 C 187.97 -40.77 189.89 -35.26 195.58 -34.88 C 195.46 -38.85 196.86 -40.13 199.74 -44.1 C 189.31 -40.9 190.46 -44.8 181.25 -44.8 C 174.4 -44.8 168.19 -40.58 168.19 -32.32 C 168.19 -19.52 190.34 -18.56 190.34 -9.15 C 190.34 -4.86 185.79 -3.52 183.1 -3.52 C 178.69 -3.52 175.49 -10.18 169.79 -10.56 C 169.92 -6.59 168.51 -4.16 165.63 -0.19 C 178.88 -4.22 176.19 0.51 184.13 0.51 C 191.94 0.51 199.3 -3.9 199.3 -12.22 C 199.3 -23.81 176.38 -28.48 176.38 -35.9 C 176.38 -39.3 179.2 -40.77 182.27 -40.77 Z M 202.3 -0.64 L 202.3 0 L 235.97 0 L 236.22 -0.83 L 239.3 -10.56 L 238.08 -10.94 C 236.48 -5.89 234.56 -2.24 229.31 -2.24 L 216.77 -2.24 L 216.77 -19.2 C 218.62 -21.12 221.12 -22.21 223.94 -22.21 C 225.34 -22.21 227.01 -22.08 228.16 -21.38 C 228.67 -23.62 230.46 -26.62 233.54 -28.86 L 227.33 -28.86 C 224.19 -28.86 221.44 -27.52 219.52 -25.09 L 216.77 -21.7 L 216.77 -41.92 L 218.88 -41.92 C 227.71 -41.92 228.16 -36.16 234.94 -36.16 C 234.82 -39.04 235.97 -41.28 238.4 -44.16 L 202.3 -44.16 L 202.3 -43.52 C 204.61 -43.52 207.17 -43.07 207.17 -40.64 L 207.17 -3.52 C 207.17 -1.09 204.61 -0.64 202.3 -0.64 Z M 242.5 -0.64 L 242.5 0 L 260.54 0 L 260.54 -0.64 C 258.24 -0.64 255.68 -1.09 255.68 -3.52 L 255.68 -14.02 C 256.83 -15.87 258.94 -17.34 261.38 -18.69 C 265.6 -19.14 269.76 -17.09 269.76 -10.94 L 269.76 -7.68 C 269.76 -1.73 274.56 0.64 279.68 0.64 C 282.75 0.64 284.42 -0.19 285.63 -1.92 C 285.18 -1.98 284.67 -2.37 284.22 -2.94 C 284.1 -1.66 283.01 -0.64 281.6 -0.64 C 278.91 -0.64 278.72 -5.12 278.72 -7.62 L 278.72 -12.29 C 278.72 -19.26 273.41 -21.7 268.35 -21.7 C 268.1 -21.7 267.78 -21.7 267.46 -21.63 C 273.22 -24.38 278.72 -27.39 278.72 -33.09 C 278.72 -40.32 271.23 -44.16 263.36 -44.16 L 242.5 -44.16 L 242.5 -43.52 C 244.8 -43.52 247.36 -43.07 247.36 -40.64 L 247.36 -3.52 C 247.36 -1.09 244.8 -0.64 242.5 -0.64 Z M 255.68 -17.92 L 255.68 -39.62 C 257.66 -41.15 259.52 -41.6 261.5 -41.6 C 266.37 -41.6 269.82 -37.25 269.82 -33.09 C 269.82 -24.19 260.48 -22.27 255.68 -17.92 Z M 284.99 -0.64 L 284.99 0 L 303.68 0 L 303.68 -0.64 C 301.38 -0.64 298.82 -1.09 298.82 -3.52 L 298.82 -41.6 C 298.82 -43.33 298.82 -44.8 299.46 -46.72 C 297.02 -45.06 293.06 -44.22 290.05 -44.16 L 284.99 -44.16 L 284.99 -43.52 C 287.3 -43.52 289.86 -43.07 289.86 -40.64 L 289.86 -3.52 C 289.86 -1.09 287.3 -0.64 284.99 -0.64 Z M 346.88 -3.33 L 330.82 -46.78 L 327.42 -46.78 C 326.27 -44.1 324.8 -42.05 323.2 -41.41 L 323.78 -39.81 L 317.44 -22.46 L 315.39 -22.46 C 315.97 -22.08 316.48 -21.63 316.93 -21.18 L 310.4 -3.33 C 309.57 -1.02 306.62 -0.64 304.32 -0.64 L 304.32 0 L 315.14 0 L 315.14 -0.64 C 313.54 -0.64 312.13 -1.02 312.96 -3.33 L 318.72 -19.2 C 319.81 -17.73 320.51 -16.26 320.77 -14.98 C 321.92 -15.68 324.86 -15.81 326.27 -15.81 C 329.41 -15.81 330.88 -14.46 332.8 -12.03 L 335.17 -9.15 L 337.28 -3.39 C 338.11 -1.09 335.94 -0.7 333.63 -0.77 L 333.63 -0.13 L 351.49 0 L 351.49 -0.64 C 349.89 -0.64 347.71 -1.02 346.88 -3.33 Z M 322.88 -22.46 L 319.87 -22.46 L 324.99 -36.54 L 333.5 -13.7 L 329.41 -18.69 C 327.49 -21.12 326.02 -22.46 322.88 -22.46 Z" stroke-linecap="round" />
</g>
</g>
</g>
<g transform="matrix(0.919515502802823 1.686808625984877 -1.6868086259848776 0.9195155028028232 473.6943760107182 437.69187436179084)" id="tagline-7dfcb3ca-2c9d-4f44-ba55-5f136b1dd3e1-logo-0"  >
<g style=""  paint-order="stroke"   >
		<g transform="matrix(1 0 0 1 0 0)" id="6b319dbb-0c9e-48d0-bee5-76b439472cf9-path-0"  >
<path style="stroke: none; stroke-width: 0; stroke-dasharray: none; stroke-linecap: butt; stroke-dashoffset: 0; stroke-linejoin: miter; stroke-miterlimit: 4; fill: rgb(255,252,242); fill-rule: nonzero; opacity: 1;"  paint-order="stroke"  transform=" translate(-5.3500000000000005, 7.01)" d="M 4.96 -0.22 C 3.8 -0.22 2.64 -0.62 1.68 -1.36 C 1.02 -1.98 1.38 -2.52 1.76 -3.1 L 0.44 -1.96 C 1.62 -0.62 3.3 0.18 4.96 0.18 C 8.02 0.18 10.26 -1.18 10.26 -3.92 C 10.26 -8.18 2.86 -7.82 2.86 -11.28 C 2.86 -12.66 3.8 -13.8 5.44 -13.8 C 6.2 -13.8 6.92 -13.68 7.56 -13.44 C 8.36 -13 8.12 -12.42 7.88 -11.78 L 8.72 -12.88 L 8.92 -13.16 C 7.94 -13.82 6.76 -14.2 5.44 -14.2 C 2.5 -14.2 0.76 -12.68 0.76 -10.64 C 0.76 -6.28 8.16 -6.54 8.16 -3.16 C 8.16 -1.62 7 -0.22 4.96 -0.22 Z" stroke-linecap="round" />
</g>
</g>
</g>
<g transform="matrix(1.262784505449298 1.4478285096615855 -1.4478285096615855 1.262784505449298 497.2544453355183 471.56194398113746)" id="tagline-7dfcb3ca-2c9d-4f44-ba55-5f136b1dd3e1-logo-1"  >
<g style=""  paint-order="stroke"   >
		<g transform="matrix(1 0 0 1 0 0)" id="d1f8e825-f21c-46a5-aa89-88354958c5b5-path-0"  >
<path style="stroke: none; stroke-width: 0; stroke-dasharray: none; stroke-linecap: butt; stroke-dashoffset: 0; stroke-linejoin: miter; stroke-miterlimit: 4; fill: rgb(255,252,242); fill-rule: nonzero; opacity: 1;"  paint-order="stroke"  transform=" translate(-2.76, 7)" d="M 0.44 0 L 5.08 0 C 4.42 -0.28 3.76 -0.52 3.76 -1.82 L 3.76 -12.18 C 3.76 -13.48 4.42 -13.72 5.08 -14 L 0.44 -14 C 1.1 -13.72 1.76 -13.48 1.76 -12.18 L 1.76 -1.82 C 1.76 -0.52 1.1 -0.28 0.44 0 Z" stroke-linecap="round" />
</g>
</g>
</g>
<g transform="matrix(1.561599474221505 1.1190349336382825 -1.1190349336382825 1.561599474221505 529.6734805318802 501.01837950375693)" id="tagline-7dfcb3ca-2c9d-4f44-ba55-5f136b1dd3e1-logo-2"  >
<g style=""  paint-order="stroke"   >
		<g transform="matrix(1 0 0 1 0 0)" id="5598b1aa-8b53-4ada-a911-c2a482ca303f-path-0"  >
<path style="stroke: none; stroke-width: 0; stroke-dasharray: none; stroke-linecap: butt; stroke-dashoffset: 0; stroke-linejoin: miter; stroke-miterlimit: 4; fill: rgb(255,252,242); fill-rule: nonzero; opacity: 1;"  paint-order="stroke"  transform=" translate(-6.5600000000000005, 7)" d="M 10.56 0 L 11.36 0 L 11.36 -12.18 C 11.36 -13.48 12.02 -13.72 12.68 -14 L 9.64 -14 C 10.3 -13.72 10.96 -13.48 10.96 -12.18 L 10.96 -3.06 L 3.76 -14 L 0.44 -14 C 1.1 -13.72 1.76 -13.48 1.76 -12.18 L 1.76 -1.82 C 1.76 -0.52 1.1 -0.28 0.44 0 L 3.48 0 C 2.82 -0.28 2.16 -0.52 2.16 -1.82 L 2.16 -12.78 Z" stroke-linecap="round" />
</g>
</g>
</g>
<g transform="matrix(1.8045286045642823 0.6591726753294602 -0.6591726753294606 1.804528604564283 574.9882249201398 524.9352627781128)" id="tagline-7dfcb3ca-2c9d-4f44-ba55-5f136b1dd3e1-logo-3"  >
<g style=""  paint-order="stroke"   >
		<g transform="matrix(1 0 0 1 0 0)" id="1dad0f15-372a-4931-b7c6-fa388799e2ca-path-0"  >
<path style="stroke: none; stroke-width: 0; stroke-dasharray: none; stroke-linecap: butt; stroke-dashoffset: 0; stroke-linejoin: miter; stroke-miterlimit: 4; fill: rgb(255,252,242); fill-rule: nonzero; opacity: 1;"  paint-order="stroke"  transform=" translate(-6.24, 7.01)" d="M 7.52 0.18 C 9.18 0.18 10.86 -0.62 12.04 -1.96 L 10.72 -3.1 C 11.04 -2.46 11.32 -1.9 10.34 -1.04 C 9.48 -0.5 8.5 -0.22 7.52 -0.22 C 4.38 -0.22 2.54 -3.1 2.54 -7.02 C 2.54 -11.06 4.5 -13.8 7.32 -13.8 C 8.08 -13.8 8.8 -13.68 9.44 -13.44 C 10.24 -13 10 -12.42 9.76 -11.78 L 10.6 -12.88 L 10.8 -13.16 C 9.82 -13.82 8.64 -14.2 7.32 -14.2 C 3.3 -14.2 0.44 -11.3 0.44 -7.02 C 0.44 -2.88 3.12 0.18 7.52 0.18 Z" stroke-linecap="round" />
</g>
</g>
</g>
<g transform="matrix(1.9138540336875918 0.1673165811551587 -0.1673165811551587 1.913854033687592 623.4948379434024 535.7396217056989)" id="tagline-7dfcb3ca-2c9d-4f44-ba55-5f136b1dd3e1-logo-4"  >
<g style=""  paint-order="stroke"   >
		<g transform="matrix(1 0 0 1 0 0)" id="8ef79b35-0be1-457a-9829-b6a3c351d238-path-0"  >
<path style="stroke: none; stroke-width: 0; stroke-dasharray: none; stroke-linecap: butt; stroke-dashoffset: 0; stroke-linejoin: miter; stroke-miterlimit: 4; fill: rgb(255,252,242); fill-rule: nonzero; opacity: 1;"  paint-order="stroke"  transform=" translate(-5.800000000000001, 7)" d="M 0.44 0 L 10.02 0 L 11.16 -2.28 C 10.3 -1.54 9.38 -0.4 7.3 -0.4 L 3.76 -0.4 L 3.76 -6.8 L 6.4 -6.8 C 7.7 -6.8 7.94 -6.14 8.22 -5.48 L 8.22 -8.52 C 7.94 -7.86 7.7 -7.2 6.4 -7.2 L 3.76 -7.2 L 3.76 -13.6 L 7.5 -13.6 C 9.44 -13.6 9.8 -12.62 10.22 -11.62 L 10.22 -14 L 0.44 -14 C 1.1 -13.72 1.76 -13.48 1.76 -12.18 L 1.76 -1.82 C 1.76 -0.52 1.1 -0.28 0.44 0 Z" stroke-linecap="round" />
</g>
</g>
</g>
<g transform="matrix(0.991878206172928 -0.12719128947838462 0.12719128947838465 0.9918782061729281 340.40921441406533 278.6207932357534)" id="tagline-7dfcb3ca-2c9d-4f44-ba55-5f136b1dd3e1-logo-5"  >
<g style=""  paint-order="stroke"   >
		<g transform="matrix(1 0 0 1 0 0)" id="5d7b9435-1454-4a07-b04d-43eade0d1102-path-0"  >
<path style="stroke: none; stroke-width: 0; stroke-dasharray: none; stroke-linecap: butt; stroke-dashoffset: 0; stroke-linejoin: miter; stroke-miterlimit: 4; fill: rgb(255,252,242); fill-rule: nonzero; opacity: 1;"  paint-order="stroke"  transform=" translate(0, 0)" d="" stroke-linecap="round" />
</g>
</g>
</g>
<g transform="matrix(1.8158567825628202 -0.6272927911368954 0.6272927911368955 1.8158567825628207 701.7590506413671 525.9020613328378)" id="tagline-7dfcb3ca-2c9d-4f44-ba55-5f136b1dd3e1-logo-6"  >
<g style=""  paint-order="stroke"   >
		<g transform="matrix(1 0 0 1 0 0)" id="0b1d9e6d-76ad-46d4-a639-c30aba9d9103-path-0"  >
<path style="stroke: none; stroke-width: 0; stroke-dasharray: none; stroke-linecap: butt; stroke-dashoffset: 0; stroke-linejoin: miter; stroke-miterlimit: 4; fill: rgb(255,252,242); fill-rule: nonzero; opacity: 1;"  paint-order="stroke"  transform=" translate(-4.94, 7.1)" d="M 0.44 0 L 9.44 0 L 9.44 -2.38 C 9.02 -1.4 8.66 -0.4 6.72 -0.4 L 2.66 -0.4 C 2.96 -5.68 9.28 -6.18 9.28 -10.44 C 9.28 -12.48 7.34 -14.2 4.2 -14.2 C 2.88 -14.2 1.6 -13.44 0.72 -12.56 L 0.92 -12.28 L 1.76 -11.18 C 1.52 -11.82 1.24 -12.48 1.94 -13.06 C 2.6 -13.5 3.38 -13.8 4.2 -13.8 C 6.04 -13.8 7.18 -12.46 7.18 -11.08 C 7.18 -7.62 0.44 -6.74 0.44 0 Z" stroke-linecap="round" />
</g>
</g>
</g>
<g transform="matrix(1.604853244257674 -1.0560673108222476 1.0560673108222476 1.6048532442576742 744.1203553593235 505.24703007205784)" id="tagline-7dfcb3ca-2c9d-4f44-ba55-5f136b1dd3e1-logo-7"  >
<g style=""  paint-order="stroke"   >
		<g transform="matrix(1 0 0 1 0 0)" id="7ffd5fc9-189a-43c6-8084-a22ff5b58c13-path-0"  >
<path style="stroke: none; stroke-width: 0; stroke-dasharray: none; stroke-linecap: butt; stroke-dashoffset: 0; stroke-linejoin: miter; stroke-miterlimit: 4; fill: rgb(255,252,242); fill-rule: nonzero; opacity: 1;"  paint-order="stroke"  transform=" translate(-5.910000000000001, 7.01)" d="M 5.92 0.18 C 9.12 0.18 11.38 -2.74 11.38 -7.02 C 11.38 -11.14 9.3 -14.2 5.92 -14.2 C 2.7 -14.2 0.44 -11.3 0.44 -7.02 C 0.44 -2.88 2.52 0.18 5.92 0.18 Z M 5.92 -0.22 C 3.78 -0.22 2.54 -3.1 2.54 -7.02 C 2.54 -11.06 3.9 -13.8 5.92 -13.8 C 8.04 -13.8 9.28 -10.92 9.28 -7.02 C 9.28 -2.98 7.92 -0.22 5.92 -0.22 Z" stroke-linecap="round" />
</g>
</g>
</g>
<g transform="matrix(1.294549478563749 -1.4194977098051416 1.4194977098051418 1.294549478563749 779.7945539957752 474.562623878125)" id="tagline-7dfcb3ca-2c9d-4f44-ba55-5f136b1dd3e1-logo-8"  >
<g style=""  paint-order="stroke"   >
		<g transform="matrix(1 0 0 1 0 0)" id="bcebe5e2-a771-4422-aee5-bf37d9964978-path-0"  >
<path style="stroke: none; stroke-width: 0; stroke-dasharray: none; stroke-linecap: butt; stroke-dashoffset: 0; stroke-linejoin: miter; stroke-miterlimit: 4; fill: rgb(255,252,242); fill-rule: nonzero; opacity: 1;"  paint-order="stroke"  transform=" translate(-4.94, 7.1)" d="M 0.44 0 L 9.44 0 L 9.44 -2.38 C 9.02 -1.4 8.66 -0.4 6.72 -0.4 L 2.66 -0.4 C 2.96 -5.68 9.28 -6.18 9.28 -10.44 C 9.28 -12.48 7.34 -14.2 4.2 -14.2 C 2.88 -14.2 1.6 -13.44 0.72 -12.56 L 0.92 -12.28 L 1.76 -11.18 C 1.52 -11.82 1.24 -12.48 1.94 -13.06 C 2.6 -13.5 3.38 -13.8 4.2 -13.8 C 6.04 -13.8 7.18 -12.46 7.18 -11.08 C 7.18 -7.62 0.44 -6.74 0.44 0 Z" stroke-linecap="round" />
</g>
</g>
</g>
<g transform="matrix(0.9171189181854057 -1.6881128488635313 1.6881128488635315 0.9171189181854058 806.5904021751526 437.53936758554204)" id="tagline-7dfcb3ca-2c9d-4f44-ba55-5f136b1dd3e1-logo-9"  >
<g style=""  paint-order="stroke"   >
		<g transform="matrix(1 0 0 1 0 0)" id="dbc5bba1-a12b-4509-b1d8-31b0eda1884f-path-0"  >
<path style="stroke: none; stroke-width: 0; stroke-dasharray: none; stroke-linecap: butt; stroke-dashoffset: 0; stroke-linejoin: miter; stroke-miterlimit: 4; fill: rgb(255,252,242); fill-rule: nonzero; opacity: 1;"  paint-order="stroke"  transform=" translate(-5.23, 6.91)" d="M 4.96 -0.22 C 3.8 -0.22 2.64 -0.62 1.68 -1.36 C 1.02 -1.98 1.38 -2.52 1.76 -3.1 L 0.44 -1.96 C 1.62 -0.62 3.3 0.18 4.96 0.18 C 7.92 0.18 10.02 -1.56 10.02 -4.1 C 10.02 -6.54 8.1 -8.38 4.96 -8.38 L 3.82 -8.38 L 4.48 -13.6 L 6.22 -13.6 C 8.16 -13.6 8.52 -12.62 8.94 -11.62 L 8.94 -14 L 2.34 -14 L 1.56 -7.98 L 4.96 -7.98 C 6.84 -7.98 7.96 -6.34 7.96 -4.1 C 7.96 -1.8 6.76 -0.22 4.96 -0.22 Z" stroke-linecap="round" />
</g>
</g>
</g>
<g transform="matrix(1.9211538461538462 0 0 1.9211538461538462 639.9620572115385 379.37061787685116)" id="tagline-aa972bb6-df09-4cc1-a477-7de58f49eaec-logo"  >
<g style=""  paint-order="stroke"   >
		<g transform="matrix(1 0 0 1 0 0)" id="tagline-aa972bb6-df09-4cc1-a477-7de58f49eaec-logo-path-0"  >
<path style="stroke: none; stroke-width: 0; stroke-dasharray: none; stroke-linecap: butt; stroke-dashoffset: 0; stroke-linejoin: miter; stroke-miterlimit: 4; fill: rgb(224,13,69); fill-rule: nonzero; opacity: 1;"  paint-order="stroke"  transform=" translate(-25.160000000000004, 27.255)" d="M 25.68 -51.35 C 17.85 -51.35 13.27 -40.69 13.27 -27.89 C 13.27 -14.85 20.14 -2.69 27.1 -2.69 C 33.89 -2.69 37.29 -12.4 48.74 -12.4 C 48.51 -7.5 42.74 -4.9 46.85 0 C 34.21 -3.63 34.37 0.79 24.33 0.79 C 12.32 0.79 1.58 -7.66 1.58 -25.91 C 1.58 -39.03 9.24 -55.3 27.41 -55.3 C 36.1 -55.3 37.84 -52.3 46.85 -54.67 C 43.53 -50.72 40.45 -47.08 40.61 -43.29 C 34.21 -43.61 33.65 -51.35 25.68 -51.35 Z" stroke-linecap="round" />
</g>
</g>
</g>
<g transform="matrix(1.9211538461538462 0 0 1.9211538461538462 640.1440865384615 766.4078619023844)" id="tagline-47e4ba6e-68b3-4cf3-846c-0eff6c501f3a-logo"  >
<g style=""  paint-order="stroke"   >
		<g transform="matrix(1 0 0 1 0 0)" id="tagline-47e4ba6e-68b3-4cf3-846c-0eff6c501f3a-logo-path-0"  >
<path style="stroke: none; stroke-width: 0; stroke-dasharray: none; stroke-linecap: butt; stroke-dashoffset: 0; stroke-linejoin: miter; stroke-miterlimit: 4; fill: rgb(224,13,69); fill-rule: nonzero; opacity: 1;"  paint-order="stroke"  transform=" translate(-88.875, 10.29)" d="M 2.64 -18.27 L 2.64 -6.54 C 2.64 -2.43 5.4 0.42 10.8 0.42 C 15.09 0.42 17.64 -2.01 17.64 -6.54 L 17.64 -18.27 C 17.64 -20.22 18.63 -20.58 19.62 -21 L 15.06 -21 C 16.05 -20.58 17.04 -20.22 17.04 -18.27 L 17.04 -6.54 C 17.04 -2.37 14.73 -0.18 10.8 -0.18 C 7.44 -0.18 5.64 -2.4 5.64 -6.54 L 5.64 -18.27 C 5.64 -20.22 6.63 -20.58 7.62 -21 L 0.66 -21 C 1.65 -20.58 2.64 -20.22 2.64 -18.27 Z M 43.26 0 L 50.52 0 C 49.53 -0.42 48.12 -0.66 47.04 -2.28 L 42.63 -8.88 C 45.48 -10.23 47.79 -12.06 47.79 -15.24 C 47.79 -18.36 44.82 -21 40.08 -21 L 32.76 -21 C 33.75 -20.58 34.74 -20.22 34.74 -18.27 L 34.74 -2.73 C 34.74 -0.78 33.75 -0.42 32.76 0 L 39.72 0 C 38.73 -0.42 37.74 -0.78 37.74 -2.73 L 37.74 -6.96 L 39.99 -7.77 L 43.71 -2.25 C 44.79 -0.66 44.25 -0.42 43.26 0 Z M 37.74 -7.89 L 37.74 -20.4 L 40.08 -20.4 C 42.87 -20.4 44.64 -18.42 44.64 -15.24 C 44.64 -10.59 41.37 -9.21 37.74 -7.89 Z M 63.66 0 L 72.78 0 C 77.37 0 80.49 -2.52 80.49 -5.67 C 80.49 -7.71 78.81 -9.54 75.03 -10.74 C 77.13 -11.88 78.69 -13.44 78.69 -15.75 C 78.69 -18.63 75.57 -21 70.98 -21 L 63.66 -21 C 64.65 -20.58 65.64 -20.22 65.64 -18.27 L 65.64 -2.73 C 65.64 -0.78 64.65 -0.42 63.66 0 Z M 72.78 -0.6 L 68.64 -0.6 L 68.64 -8.25 C 70.38 -8.82 72.3 -9.45 73.95 -10.2 C 76.05 -9.48 77.34 -8.01 77.34 -5.67 C 77.34 -2.64 75.63 -0.6 72.78 -0.6 Z M 68.64 -9.12 L 68.64 -20.4 L 70.98 -20.4 C 74.04 -20.4 75.54 -18.45 75.54 -15.75 C 75.54 -11.46 72.27 -10.29 68.64 -9.12 Z M 109.95 0 L 112.44 0 C 111.45 -0.42 110.16 -0.72 109.47 -2.55 L 102.21 -21 L 98.88 -21 C 100.17 -20.4 101.1 -19.95 100.23 -17.37 L 95.28 -2.58 C 94.65 -0.75 93.42 -0.42 92.43 0 L 96.99 0 C 96 -0.42 95.25 -0.75 95.88 -2.58 L 97.44 -7.2 L 104.49 -7.2 L 106.35 -2.46 C 107.01 -0.75 108.15 0 109.95 0 Z M 97.62 -7.8 L 100.68 -16.89 L 104.25 -7.8 Z M 140.76 0 L 141.96 0 L 141.96 -18.27 C 141.96 -20.22 142.95 -20.58 143.94 -21 L 139.38 -21 C 140.37 -20.58 141.36 -20.22 141.36 -18.27 L 141.36 -4.59 L 130.56 -21 L 125.58 -21 C 126.57 -20.58 127.56 -20.22 127.56 -18.27 L 127.56 -2.73 C 127.56 -0.78 126.57 -0.42 125.58 0 L 130.14 0 C 129.15 -0.42 128.16 -0.78 128.16 -2.73 L 128.16 -19.17 Z M 174.6 0 L 177.09 0 C 176.1 -0.42 174.81 -0.72 174.12 -2.55 L 166.86 -21 L 163.53 -21 C 164.82 -20.4 165.75 -19.95 164.88 -17.37 L 159.93 -2.58 C 159.3 -0.75 158.07 -0.42 157.08 0 L 161.64 0 C 160.65 -0.42 159.9 -0.75 160.53 -2.58 L 162.09 -7.2 L 169.14 -7.2 L 171 -2.46 C 171.66 -0.75 172.8 0 174.6 0 Z M 162.27 -7.8 L 165.33 -16.89 L 168.9 -7.8 Z" stroke-linecap="round" />
</g>
</g>
</g>
</svg>